<?xml version="1.0" encoding="UTF-8" standalone="no"?>
<svg
   width="111.12993"
   height="40.321297"
   version="1.1"
   id="svg71"
   sodipodi:docname="flutter_logo.svg"
   inkscape:version="1.1.2 (b8e25be833, 2022-02-05)"
   xmlns:inkscape="http://www.inkscape.org/namespaces/inkscape"
   xmlns:sodipodi="http://sodipodi.sourceforge.net/DTD/sodipodi-0.dtd"
   xmlns:xlink="http://www.w3.org/1999/xlink"
   xmlns="http://www.w3.org/2000/svg"
   xmlns:svg="http://www.w3.org/2000/svg">
  <defs
     id="defs75" />
  <sodipodi:namedview
     id="namedview73"
     pagecolor="#ffffff"
     bordercolor="#666666"
     borderopacity="1.0"
     inkscape:pageshadow="2"
     inkscape:pageopacity="0.0"
     inkscape:pagecheckerboard="0"
     showgrid="false"
     inkscape:zoom="8.8166667"
     inkscape:cx="55.860113"
     inkscape:cy="20.982987"
     inkscape:window-width="1920"
     inkscape:window-height="1057"
     inkscape:window-x="-8"
     inkscape:window-y="-8"
     inkscape:window-maximized="1"
     inkscape:current-layer="svg71" />
  <g
     transform="matrix(0.038819,0,0,0.038819,-4.6815714,-0.8035533)"
     id="g59">
    <defs
       id="defs4">
      <path
         id="A"
         d="M 959.4,500 679.8,779.7 959.4,1059.4 H 639.9 L 360.2,779.7 639.9,500 Z M 639.9,20.7 120.6,540 280.4,699.8 959.4,20.7 Z" />
      <path
         id="B"
         d="m 79.564,38.728 q -0.812,0 -1.518,-0.262 -0.68,-0.262 -1.152,-0.707 -0.524,-0.497 -0.785,-1.152 -0.262,-0.654 -0.262,-1.597 v -7.827 h -2.33 v -2.016 h 2.33 v -3.77 h 2.225 v 3.77 h 3.246 v 2.016 h -3.246 v 7.278 q 0,1.1 0.42,1.623 0.497,0.576 1.44,0.576 0.76,0 1.466,-0.445 v 2.173 q -0.393,0.183 -0.812,0.262 -0.393,0.08 -1.02,0.08 z" />
    </defs>
    <clipPath
       id="C">
      <use
         xlink:href="#A"
         id="use6"
         x="0"
         y="0"
         width="100%"
         height="100%" />
    </clipPath>
    <g
       clip-path="url(#C)"
       id="g11">
      <path
         d="M 520,939.5 959.4,500 H 639.9 L 360.3,779.7 Z"
         fill="#39cefd"
         id="path9" />
    </g>
    <defs
       id="defs14">
      <path
         id="D"
         d="M 959.4,500 679.8,779.7 959.4,1059.4 H 639.9 L 360.2,779.7 639.9,500 Z M 639.9,20.7 120.6,540 280.4,699.8 959.4,20.7 Z" />
    </defs>
    <clipPath
       id="E">
      <use
         xlink:href="#D"
         id="use16"
         x="0"
         y="0"
         width="100%"
         height="100%" />
    </clipPath>
    <path
       clip-path="url(#E)"
       d="M 120.6,540 639.9,20.7 h 319.5 l -679,679.1 z"
       fill="#39cefd"
       id="path19" />
    <defs
       id="defs22">
      <path
         id="F"
         d="M 959.4,500 679.8,779.7 959.4,1059.4 H 639.9 L 360.2,779.7 639.9,500 Z M 639.9,20.7 120.6,540 280.4,699.8 959.4,20.7 Z" />
    </defs>
    <clipPath
       id="G">
      <use
         xlink:href="#F"
         id="use24"
         x="0"
         y="0"
         width="100%"
         height="100%" />
    </clipPath>
    <path
       clip-path="url(#G)"
       d="M 639.9,1059.3 H 959.4 L 679.8,779.7 520,939.5 Z"
       fill="#03569b"
       id="path27" />
    <defs
       id="defs30">
      <path
         id="H"
         d="M 959.4,500 679.8,779.7 959.4,1059.4 H 639.9 L 360.2,779.7 639.9,500 Z M 639.9,20.7 120.6,540 280.4,699.8 959.4,20.7 Z" />
    </defs>
    <clipPath
       id="I">
      <use
         xlink:href="#H"
         id="use32"
         x="0"
         y="0"
         width="100%"
         height="100%" />
    </clipPath>
    <linearGradient
       id="J"
       gradientUnits="userSpaceOnUse"
       x1="566.63501"
       y1="970.33899"
       x2="685.65002"
       y2="851.32397">
      <stop
         offset="0"
         stop-color="#1a237e"
         stop-opacity=".4"
         id="stop35" />
      <stop
         offset="1"
         stop-color="#1a237e"
         stop-opacity="0"
         id="stop37" />
    </linearGradient>
    <path
       clip-path="url(#I)"
       d="M 679.8,779.7 520,939.5 757,857.4 Z"
       fill="url(#J)"
       id="path40"
       style="fill:url(#J)" />
    <defs
       id="defs43">
      <path
         id="K"
         d="M 959.4,500 679.8,779.7 959.4,1059.4 H 639.9 L 360.2,779.7 639.9,500 Z M 639.9,20.7 120.6,540 280.4,699.8 959.4,20.7 Z" />
    </defs>
    <clipPath
       id="L">
      <use
         xlink:href="#K"
         id="use45"
         x="0"
         y="0"
         width="100%"
         height="100%" />
    </clipPath>
    <g
       clip-path="url(#L)"
       id="g50">
      <path
         d="M 360.282,779.645 520.086,619.84 679.9,779.645 520.086,939.45 Z"
         fill="#16b9fd"
         id="path48" />
    </g>
    <radialGradient
       id="M"
       cx="7824.6592"
       cy="-2855.979"
       r="5082.8892"
       gradientTransform="matrix(0.25,0,0,-0.25,-1812,-622.5)"
       gradientUnits="userSpaceOnUse">
      <stop
         offset="0"
         stop-color="#fff"
         stop-opacity=".1"
         id="stop52" />
      <stop
         offset="1"
         stop-color="#fff"
         stop-opacity="0"
         id="stop54" />
    </radialGradient>
    <path
       d="M 959.4,500 679.8,779.7 959.4,1059.4 H 639.9 L 360.2,779.7 639.9,500 Z M 639.9,20.7 120.6,540 280.4,699.8 959.4,20.7 Z"
       fill="url(#M)"
       id="path57"
       style="fill:url(#M)" />
  </g>
  <g
     fill="#808080"
     id="g69"
     transform="translate(-4.1210704,-8.9658293)">
    <path
       d="m 40.62,19.774 h 10.84 v 2.12 h -8.64 v 6.414 h 7.8 v 2.094 h -7.8 v 8.115 h -2.2 z m 13.463,0 h 2.225 v 18.744 h -2.225 z m 10.365,19.163 q -2.408,0 -3.7,-1.414 Q 59.5,36.1 59.5,33.57 v -8.403 h 2.225 v 8.063 q 0,1.9 0.864,2.8 0.864,0.9 2.33,0.9 1.126,0 2,-0.602 0.9,-0.602 1.36,-1.57 0.497,-0.97 0.497,-2.042 v -7.54 H 71 v 13.35 H 68.88 V 36.58 h -0.105 q -0.55,0.995 -1.754,1.675 -1.204,0.68 -2.566,0.68 z"
       id="path61" />
    <use
       xlink:href="#B"
       id="use63"
       x="0"
       y="0"
       width="100%"
       height="100%" />
    <use
       xlink:href="#B"
       x="9.4359999"
       id="use65"
       y="0"
       width="100%"
       height="100%" />
    <path
       d="m 98.8,38.937 q -1.9,0 -3.43,-0.916 -1.518,-0.916 -2.382,-2.513 -0.838,-1.623 -0.838,-3.64 0,-1.937 0.785,-3.56 0.812,-1.623 2.278,-2.592 1.466,-0.97 3.403,-0.97 1.963,0 3.403,0.9 1.44,0.864 2.2,2.408 0.785,1.545 0.785,3.534 0,0.393 -0.08,0.68 h -10.55 q 0.08,1.518 0.733,2.566 0.654,1.047 1.65,1.57 1.02,0.524 2.12,0.524 2.566,0 3.953,-2.408 l 1.885,0.916 q -0.864,1.623 -2.356,2.566 -1.466,0.942 -3.56,0.942 z m 3.848,-8.508 q -0.052,-0.838 -0.47,-1.675 -0.42,-0.838 -1.335,-1.414 -0.9,-0.576 -2.25,-0.576 -1.57,0 -2.67,1.02 -1.073,0.995 -1.414,2.644 h 8.142 z m 4.934,-5.262 h 2.12 v 2.147 h 0.105 q 0.393,-1.1 1.518,-1.806 1.126,-0.733 2.356,-0.733 0.916,0 1.57,0.262 v 2.408 q -0.838,-0.42 -1.885,-0.42 -0.97,0 -1.78,0.55 -0.812,0.55 -1.3,1.492 -0.47,0.916 -0.47,2 v 7.46 h -2.225 v -13.35 z"
       id="path67" />
  </g>
</svg>
