<?xml version="1.0" encoding="UTF-8" standalone="no"?>
<svg
   width="7.0380621in"
   height="3.0835826in"
   viewBox="0 0 506.73983 222.01795"
   version="1.1"
   id="svg9542"
   sodipodi:docname="logo - Copy.svg"
   inkscape:version="1.1.2 (b8e25be833, 2022-02-05)"
   xmlns:inkscape="http://www.inkscape.org/namespaces/inkscape"
   xmlns:sodipodi="http://sodipodi.sourceforge.net/DTD/sodipodi-0.dtd"
   xmlns="http://www.w3.org/2000/svg"
   xmlns:svg="http://www.w3.org/2000/svg">
  <defs
     id="defs9546" />
  <sodipodi:namedview
     id="namedview9544"
     pagecolor="#ffffff"
     bordercolor="#666666"
     borderopacity="1.0"
     inkscape:pageshadow="2"
     inkscape:pageopacity="0.0"
     inkscape:pagecheckerboard="0"
     inkscape:document-units="in"
     showgrid="false"
     inkscape:zoom="1.1689344"
     inkscape:cx="400.79237"
     inkscape:cy="89.825398"
     inkscape:window-width="1920"
     inkscape:window-height="1057"
     inkscape:window-x="-8"
     inkscape:window-y="-8"
     inkscape:window-maximized="1"
     inkscape:current-layer="svg9542" />
  <path
     id="Selection"
     fill="#000000"
     stroke="#000000"
     stroke-width="1"
     d="m 0.50530305,0.5 c 0,0 69.99999995,0 69.99999995,0 0,0 0,8 0,8 -12.7,0.11 -18.98,2.06 -19,16 0,0 0,94 0,94 0,7.71 -2.36,26.68 5.1,30.83 2.5,1.38 6.1,1.17 8.9,1.17 5.85,0.01 16.78,0.49 22,-0.93 15.069997,-4.08 21.529997,-19.69 25.999997,-33.07 0,0 10,2 10,2 0,0 -4.42,31 -4.42,31 0,0 -1.75,11.43 -1.75,11.43 0,0 -7.83,1.57 -7.83,1.57 0,0 -108.99999695,0 -108.99999695,0 0.02,-1.55 -0.08,-4.31 0.59999995,-5.69 2.08,-4.23 9.89,-0.66 15.26,-4.24 4.39,-2.94 4.13,-10.36 4.14,-15.07 0,0 0,-110 0,-110 -0.01,-3.86 -0.01,-9.55 -1.98,-12.96 -3.37,-5.81 -12.02,-5.99 -18.01999995,-6.04 0,0 0,-8 0,-8 z M 288.5053,120.5 c -6.64,-4.8 -10.1,-10.29 -12.64,-18 -5.89,-17.86 -0.34,-34.56 15.64,-44.9 10.72,-6.93 20.84,-7.16 33,-7.1 10.15,0.05 15.39,2.95 18,2.9 2.89,-0.06 8.11,-3.29 11,-4.59 6.07,-2.73 9.38,-3.46 16,-3.3 4.23,0.11 7.68,0.67 10.57,4.12 4.52,5.41 2.54,14.47 -4.57,16.44 -4.05,1.12 -8.69,0.45 -11.59,-2.71 -1.67,-1.82 -2.7,-4.77 -4.68,-5.71 -2,-0.95 -4.74,0.26 -6.73,0.85 4.07,8.78 11.81,12.35 12,28 0.08,7.16 0.28,13.35 -2.99,20 -9.66,19.59 -27.61,22.22 -47.01,22 -5.61,-0.07 -9.82,-0.83 -15,-3 -2.75,9.51 -3.54,23.18 10,23.96 0,0 16,-0.96 16,-0.96 15.35,-0.02 32.87,-0.61 46,8.79 6.18,4.42 11.28,10.33 11.79,18.21 0.77,11.91 -7.73,23.16 -16.79,29.84 -18.97,14 -39.23,16.42 -62,16.16 -19.76,-0.24 -42.86,-14.25 -35.78,-37 1.08,-3.46 2.97,-7.06 5.08,-10 4.38,-6.09 8.05,-8.41 13.7,-13 -2.87,-1.54 -4.55,-2.55 -6.79,-5.04 -11.14,-12.42 -1.59,-26.37 7.79,-35.96 z m -99,-69.58 c 5.7,-0.69 11.34,0 17,0.87 48.31,7.48 59.34,72.19 24,101.38 -12.57,10.39 -25.55,11.51 -41,11.33 -46.59,-0.55 -65.18,-55.41 -41.9,-91 10.78,-16.48 23.77,-19.95 41.9,-22.58 z m 255,0 c 5.7,-0.69 11.34,0 17,0.87 48.31,7.48 59.34,72.19 24,101.38 -12.57,10.39 -25.55,11.51 -41,11.33 -46.59,-0.55 -65.18,-55.41 -41.9,-91 10.78,-16.48 23.77,-19.95 41.9,-22.58 z m -127,9.17 c -20.33,2.1 -18.78,33.66 -12.48,47.41 3.05,6.66 8.86,11.6 16.48,11.41 10.17,-0.25 14.38,-10.77 14.98,-19.41 0,0 0.7,-10 0.7,-10 -1,-13.36 -3.37,-28.29 -19.68,-29.41 z m -126,1.99 c -12.14,1.25 -17.31,11.8 -20.26,22.42 -4.48,16.19 -2.54,36.79 4.58,52 4.61,9.84 12.23,17.47 23.68,16.96 15.76,-0.71 19.98,-18.05 20,-30.96 0.03,-20.83 0.7,-58.87 -28,-60.42 z m 255,0 c -12.14,1.25 -17.31,11.8 -20.26,22.42 -4.48,16.19 -2.54,36.79 4.58,52 4.61,9.84 12.23,17.47 23.68,16.96 15.76,-0.71 19.98,-18.05 20,-30.96 0.03,-20.83 0.7,-58.87 -28,-60.42 z m -148.79,104.17 c -4.84,3.15 -4.97,7.86 -5.24,13.25 -0.49,9.46 -0.63,16.71 7.12,23.67 10.25,9.21 23.51,8.61 35.91,4.89 21.1,-6.32 32.13,-26.74 17,-36.59 -7.38,-4.81 -15.71,-4.49 -24,-5.22 -8.5,-0.42 -22.69,-2.03 -30.79,0 z" />
  <path
     style="fill:#333333;stroke-width:0.85548"
     d="m 0.42773999,213.92049 c 0,-1.61903 0.39124556,-3.1855 0.86943451,-3.48104 0.4781889,-0.29553 0.6749106,-0.85208 0.4371592,-1.23677 -0.2377514,-0.3847 0.1409351,-1.17516 0.8415255,-1.7566 0.7005904,-0.58144 1.2738007,-0.77041 1.2738007,-0.41992 0,0.35048 0.5807072,0.15529 1.2904605,-0.43375 0.774607,-0.64287 2.4586344,-0.88142 4.2127679,-0.59676 1.6072697,0.26082 4.6485747,-0.0454 6.7584557,-0.68029 2.109882,-0.63498 4.063796,-0.92686 4.342032,-0.64863 0.278236,0.27824 0.505884,0.0567 0.505884,-0.49217 0,-0.54894 0.42079,-0.90182 0.935089,-0.78419 0.514299,0.11762 1.380473,-0.55607 1.92483,-1.49709 0.544357,-0.94103 1.311345,-1.94649 1.704417,-2.23435 0.393073,-0.28787 0.681797,-0.76907 0.64161,-1.06935 -0.04019,-0.30028 -0.04099,-0.6422 -0.0018,-0.75983 0.554197,-1.66253 0.666533,-16.88387 0.645588,-87.47283 -0.02203,-74.245148 -0.129815,-86.992442 -0.748665,-88.54218 -0.09394,-0.235257 -0.125219,-0.716465 -0.0695,-1.06935 0.05572,-0.352886 -0.34782,-0.64161 -0.896754,-0.64161 -0.548932,0 -0.782245,-0.215815 -0.518472,-0.479588 C 25.15827,19.041524 21.212372,14.9709 20.06489,14.9709 c -0.449127,0 -0.816594,-0.407686 -0.816594,-0.905968 0,-0.498282 -0.358366,-0.684486 -0.796368,-0.413786 -0.438003,0.270701 -1.042052,0.09466 -1.342332,-0.391206 -0.300281,-0.485864 -0.90433,-0.661907 -1.342332,-0.391207 -0.438003,0.2707 -1.248077,0.213011 -1.800166,-0.128199 C 12.817297,12.029916 9.3109252,11.524516 4.0635299,11.313056 L 0.42773999,11.166542 V 5.7971408 0.42773999 H 47.479139 94.530538 V 5.9028921 11.378045 l -3.20805,0.0044 c -4.345342,0.006 -9.185671,0.650013 -10.365385,1.379115 -0.533348,0.329628 -1.32181,0.381722 -1.752138,0.115765 -0.430327,-0.265957 -0.911534,-0.125066 -1.06935,0.313091 -0.157814,0.438141 -0.817723,0.921748 -1.466462,1.074665 -2.413542,0.568906 -5.215603,4.279413 -6.514944,8.62713 -1.177906,3.941379 -1.3259,14.045113 -1.22475,83.614999 0.103202,70.98106 0.221932,83.18489 0.823967,84.69252 0.09394,0.23525 0.125219,0.71646 0.0695,1.06935 -0.05572,0.35288 0.28366,0.64161 0.754174,0.64161 0.470514,0 0.85548,0.55995 0.85548,1.24434 0,1.45427 3.947771,5.64396 4.653292,4.93844 0.263773,-0.26377 0.481314,-0.1267 0.483424,0.3046 0.0056,1.141 4.86716,1.54367 18.388983,1.52309 12.265251,-0.0187 19.248501,-0.53707 20.888581,-1.55069 0.50939,-0.31482 1.28453,-0.35092 1.72252,-0.0803 0.43801,0.27071 1.04206,0.0947 1.34234,-0.3912 0.30028,-0.48586 0.90433,-0.66191 1.34233,-0.3912 0.438,0.2707 0.79637,0.0618 0.79637,-0.46428 0,-0.52605 0.38496,-0.71853 0.85548,-0.42774 0.47051,0.2908 0.85548,0.0983 0.85548,-0.42774 0,-0.52605 0.38496,-0.71853 0.85548,-0.42774 0.47051,0.2908 0.85548,0.0983 0.85548,-0.42774 0,-0.52605 0.38496,-0.71853 0.85548,-0.42774 0.47051,0.2908 0.85548,0.12103 0.85548,-0.37725 0,-0.49828 0.53626,-0.90597 1.19169,-0.90597 0.65543,0 1.40069,-0.54461 1.65612,-1.21025 0.25542,-0.66564 1.54775,-1.74999 2.87182,-2.40968 1.32409,-0.65968 2.31857,-1.63279 2.20996,-2.16247 -0.10861,-0.52968 0.75756,-1.71428 1.92483,-2.63246 1.16727,-0.91814 2.1223,-2.09518 2.1223,-2.6156 0,-0.52043 0.38496,-0.94623 0.85548,-0.94623 0.47051,0 0.85548,-0.57745 0.85548,-1.28322 0,-0.70577 0.38496,-1.28322 0.85548,-1.28322 0.47051,0 0.77847,-0.28873 0.68435,-0.64161 -0.0941,-0.35289 0.9453,-2.75893 2.30983,-5.34675 1.36452,-2.58783 2.40395,-4.99387 2.30983,-5.34675 -0.0941,-0.35289 0.13191,-0.64161 0.5023,-0.64161 0.37038,0 0.73606,-0.83154 0.81262,-1.84786 0.0766,-1.01632 0.57633,-2.11802 1.1106,-2.44822 0.53427,-0.3302 0.93852,-0.84604 0.89833,-1.14632 -0.0402,-0.30028 -0.025,-0.73845 0.0339,-0.9737 0.0588,-0.23526 0.20318,-0.81271 0.32081,-1.28322 0.11762,-0.47052 0.31011,-1.04797 0.42774,-1.28322 0.27373,-0.54748 0.61167,-1.89923 0.74854,-2.99418 0.1364,-1.09118 3.26385,-1.12089 3.93351,-0.0374 0.27809,0.44997 1.07564,0.59938 1.77234,0.33203 0.69669,-0.26734 1.77844,-0.0614 2.40388,0.45768 0.62545,0.51907 1.36146,0.71947 1.6356,0.44534 0.27414,-0.27414 1.33548,-0.23276 2.35855,0.092 1.55305,0.49293 1.77692,1.03539 1.35608,3.28616 -0.27722,1.48268 -0.69213,4.04316 -0.92202,5.68996 -0.22989,1.6468 -0.62626,4.34156 -0.88083,5.98836 -0.25456,1.6468 -0.47174,3.9566 -0.48263,5.13288 -0.0109,1.17629 -0.251,2.71615 -0.53357,3.42192 -0.28256,0.70577 -0.43349,2.3037 -0.3354,3.55095 0.0981,1.24726 -0.23305,2.52199 -0.73586,2.83275 -0.50281,0.31075 -0.67731,1.50882 -0.38778,2.66238 0.28952,1.15356 0.0918,2.62103 -0.43937,3.26106 -0.53117,0.64002 -0.72545,1.78992 -0.43173,2.55533 0.29371,0.76541 0.25415,2.06534 -0.0879,2.88874 -0.69469,1.67224 -1.22012,5.45404 -1.2402,8.9263 -0.008,1.26299 -0.40385,2.53771 -0.88121,2.83274 -0.47736,0.29502 -0.6173,1.53497 -0.31099,2.75542 0.49078,1.9554 0.33881,2.16197 -1.27922,1.73884 -1.0099,-0.26409 -2.07248,-0.0978 -2.36131,0.36953 -0.28883,0.46733 -1.25124,0.65982 -2.1387,0.42774 -0.88746,-0.23207 -1.82914,-0.0731 -2.09264,0.35321 -0.28032,0.4536 -31.1591,0.7752 -74.427618,0.7752 H 0.42773999 Z"
     id="path9659"
     transform="matrix(0.75000002,0,0,0.75000002,-3.1546294e-4,0)" />
  <path
     style="fill:#333333;stroke-width:0.85548"
     d="m 243.61123,218.49552 c -0.83072,-0.2965 -1.9965,-0.35682 -2.59064,-0.13403 -0.59413,0.22278 -1.59197,-0.0197 -2.21741,-0.53871 -0.62544,-0.51907 -1.36486,-0.71607 -1.64315,-0.43778 -0.27829,0.27829 -0.99652,0.20282 -1.59606,-0.16772 -0.59954,-0.37054 -2.03387,-0.77433 -3.18739,-0.89732 -1.15352,-0.12298 -2.41505,-0.72454 -2.8034,-1.33679 -0.38835,-0.61224 -0.71198,-0.77731 -0.71918,-0.36682 -0.007,0.4105 -0.52973,0.3176 -1.16117,-0.20644 -0.63143,-0.52404 -1.40136,-0.6995 -1.71096,-0.38991 -0.30959,0.30959 -0.56289,0.091 -0.56289,-0.48565 0,-0.57671 -0.38497,-0.81063 -0.85548,-0.51983 -0.47052,0.29079 -0.85548,0.0983 -0.85548,-0.42774 0,-0.52606 -0.38497,-0.71854 -0.85548,-0.42774 -0.47052,0.29079 -0.85548,0.0983 -0.85548,-0.42774 0,-0.52606 -0.38497,-0.71854 -0.85548,-0.42774 -0.47052,0.29079 -0.85548,0.0983 -0.85548,-0.42774 0,-0.52606 -0.38497,-0.71854 -0.85548,-0.42774 -0.47052,0.29079 -0.85548,0.12103 -0.85548,-0.37725 0,-0.49829 -0.57745,-0.90597 -1.28322,-0.90597 -0.70577,0 -1.28322,-0.38497 -1.28322,-0.85548 0,-0.47052 -0.57745,-0.85548 -1.28322,-0.85548 -0.70577,0 -1.28322,-0.39705 -1.28322,-0.88233 0,-0.48529 -0.64429,-1.12957 -1.43174,-1.43174 -1.85947,-0.71355 -10.93929,-9.79336 -11.65284,-11.65283 -0.30217,-0.78746 -0.94645,-1.43174 -1.43173,-1.43174 -0.48529,0 -0.88233,-0.57745 -0.88233,-1.28322 0,-0.70577 -0.38497,-1.28322 -0.85548,-1.28322 -0.47052,0 -0.85548,-0.57745 -0.85548,-1.28322 0,-0.70577 -0.44913,-1.28322 -0.99806,-1.28322 -0.54894,0 -0.7646,-0.23346 -0.47926,-0.51881 0.28534,-0.28534 -0.21463,-1.30606 -1.11106,-2.26825 -0.89642,-0.9622 -1.42797,-2.07612 -1.18121,-2.47538 0.24675,-0.39926 0.041,-0.72592 -0.45733,-0.72592 -0.49828,0 -0.82418,-0.28873 -0.72421,-0.64161 0.1,-0.35289 -0.29855,-1.50779 -0.88558,-2.56644 -0.58703,-1.05866 -0.76506,-1.93073 -0.39562,-1.93793 0.36944,-0.007 0.20022,-0.31264 -0.37604,-0.67875 -0.57626,-0.36611 -1.19111,-1.41886 -1.36633,-2.33947 -0.17522,-0.9206 -0.76514,-2.76478 -1.31094,-4.09818 -0.5458,-1.3334 -0.79085,-2.75042 -0.54455,-3.14894 0.2463,-0.39852 0.0811,-0.95124 -0.36718,-1.22827 -0.44825,-0.27704 -0.83031,-1.16981 -0.84903,-1.98395 -0.0187,-0.81413 -0.27613,-2.82762 -0.57205,-4.47442 -0.43806,-2.43789 -0.60814,-14.23773 -0.40917,-28.38847 0.0178,-1.26299 0.40463,-2.52646 0.85971,-2.80771 0.45508,-0.28126 0.62551,-1.03756 0.37872,-1.68067 -0.24678,-0.64311 -0.0312,-1.42731 0.47906,-1.74267 0.51027,-0.31536 0.72624,-0.89945 0.47994,-1.29797 -0.2463,-0.39851 -10e-4,-1.81554 0.54455,-3.14893 0.5458,-1.3334 1.13572,-3.17758 1.31094,-4.09819 0.17522,-0.9206 0.79007,-1.97336 1.36633,-2.33947 0.57626,-0.3661 0.74548,-0.67154 0.37604,-0.67874 -0.36944,-0.007 -0.19141,-0.87928 0.39562,-1.93793 0.58703,-1.05866 0.98554,-2.21356 0.88558,-2.56644 -0.1,-0.35289 0.20321,-0.64161 0.67373,-0.64161 0.47051,0 0.7883,-0.28873 0.70619,-0.64161 -0.24756,-1.06393 2.07821,-5.34675 2.90353,-5.34675 0.42276,0 0.52905,-0.38769 0.2362,-0.861524 -0.29285,-0.473837 0.0672,-1.091625 0.80008,-1.372861 0.73289,-0.281237 1.11786,-0.858686 0.85548,-1.28322 -0.26238,-0.424535 0.12259,-1.001984 0.85548,-1.28322 0.73289,-0.281237 1.13773,-0.826529 0.89964,-1.211762 -0.23808,-0.385233 0.74871,-1.541789 2.19287,-2.570125 1.44417,-1.028335 2.40572,-2.089738 2.13678,-2.358673 -0.67757,-0.677571 3.88154,-5.312736 5.22556,-5.312736 0.60119,0 1.51089,-0.780715 2.02157,-1.734921 0.51068,-0.954206 1.29687,-1.507255 1.7471,-1.228998 0.45023,0.278257 1.0487,-0.09372 1.32994,-0.826605 0.28124,-0.732892 0.81563,-1.144468 1.18754,-0.914616 0.37191,0.229852 0.9063,-0.181725 1.18753,-0.914616 0.28124,-0.732891 0.89903,-1.092926 1.37286,-0.800079 0.47384,0.292848 0.86153,0.102046 0.86153,-0.424005 0,-0.526051 0.38496,-0.718534 0.85548,-0.42774 0.47051,0.290794 0.85548,0.09831 0.85548,-0.42774 0,-0.526051 0.35208,-0.738855 0.78241,-0.472898 0.43033,0.265957 0.91153,0.131458 1.06935,-0.298887 0.15781,-0.430345 1.05687,-0.913951 1.9979,-1.07468 0.94102,-0.16073 1.94939,-0.618553 2.24081,-1.017386 0.29143,-0.398833 1.54229,-0.783799 2.77971,-0.85548 1.23742,-0.07168 2.25012,-0.460241 2.25045,-0.863466 3.3e-4,-0.403225 0.56573,-0.51628 1.25643,-0.251232 0.6907,0.265047 1.49957,0.08751 1.79749,-0.394535 0.29792,-0.482041 1.06785,-0.674524 1.71096,-0.42774 0.64311,0.246785 1.40821,0.06213 1.70022,-0.410353 0.292,-0.472479 1.17051,-0.781468 1.95222,-0.686642 0.78172,0.09483 2.095,-0.120423 2.9184,-0.478332 0.8234,-0.357908 2.06221,-0.433886 2.75291,-0.168838 0.6907,0.265047 1.48594,0.109565 1.7672,-0.345517 0.28125,-0.455082 1.54472,-0.862267 2.8077,-0.904856 6.87529,-0.23184 16.45867,-0.03676 19.83368,0.403739 2.11731,0.276347 4.69675,0.51854 5.73209,0.538207 1.03533,0.01967 2.10632,0.398021 2.37997,0.840785 0.27364,0.442765 1.06755,0.586288 1.76425,0.318941 0.69669,-0.267347 1.83926,-0.01091 2.53904,0.569851 0.69978,0.580765 1.27233,0.739324 1.27233,0.352352 0,-0.386972 0.43187,-0.271709 0.95972,0.256139 0.52785,0.527849 1.49027,0.756138 2.1387,0.507309 0.64843,-0.248828 1.17898,-0.0035 1.17898,0.54508 0,0.548622 0.35836,0.776012 0.79636,0.505312 0.43801,-0.2707 1.04205,-0.09466 1.34233,0.391207 0.30029,0.485864 0.90433,0.661907 1.34234,0.391206 0.438,-0.2707 0.79636,-0.0845 0.79636,0.413786 0,0.498282 0.28873,0.814435 0.64161,0.702561 1.082,-0.34302 6.20223,2.070984 6.20223,2.924121 0,0.4412 0.38497,0.56426 0.85548,0.273466 0.47052,-0.290794 0.85548,-0.12103 0.85548,0.377252 0,0.498282 0.53627,0.905968 1.1917,0.905968 0.65543,0 1.42264,0.601849 1.70492,1.337442 0.28227,0.735593 0.88159,1.109776 1.33182,0.831519 0.45023,-0.278257 1.2422,0.285574 1.75992,1.252959 0.51773,0.967384 1.24145,1.573396 1.60826,1.346693 0.85797,-0.530249 9.72885,8.418042 9.03404,9.112859 -0.28769,0.287686 0.27983,0.952765 1.26115,1.477955 0.98133,0.52519 1.78423,1.518795 1.78423,2.208012 0,0.689216 0.38497,1.25312 0.85548,1.25312 0.47052,0 0.85548,0.577449 0.85548,1.28322 0,0.705771 0.44913,1.283222 0.99807,1.283222 0.54892,0 0.76459,0.23346 0.47925,0.5188 -0.28534,0.28535 0.21464,1.30606 1.11106,2.26826 0.89642,0.9622 1.42797,2.07612 1.18121,2.47538 -0.24675,0.39925 -0.041,0.72592 0.45732,0.72592 0.49829,0 0.82419,0.28872 0.72423,0.64161 -0.1,0.35288 0.27146,1.45717 0.82537,2.45396 0.55393,0.99679 0.76404,2.05545 0.46692,2.35257 -0.29713,0.29712 -0.0269,0.54022 0.60041,0.54022 0.62735,0 0.88734,0.2533 0.57774,0.5629 -0.30959,0.30959 -0.13413,1.07952 0.38991,1.71096 0.52405,0.63143 0.66606,1.14806 0.31557,1.14806 -0.35048,0 -0.15799,0.57745 0.42774,1.28322 0.58574,0.70577 0.77823,1.28322 0.42774,1.28322 -0.35048,0 -0.17199,0.56058 0.39665,1.24574 0.56863,0.68516 0.80197,1.62098 0.51853,2.07959 -0.28344,0.45861 -0.0979,1.09187 0.41241,1.40723 0.51027,0.31536 0.72584,1.09956 0.47906,1.74267 -0.24679,0.64311 -0.0864,1.39318 0.35632,1.66683 0.93721,0.57922 0.93695,0.57463 0.90294,16.23912 -0.0357,16.4146 -0.0437,16.56357 -0.92647,17.10914 -0.42982,0.26565 -0.57958,1.00917 -0.33279,1.65228 0.24678,0.64311 0.0312,1.42731 -0.47906,1.74268 -0.51027,0.31535 -0.69585,0.94861 -0.41241,1.40722 0.28344,0.45862 0.0501,1.39443 -0.51853,2.07959 -0.56864,0.68516 -0.74713,1.24575 -0.39665,1.24575 0.35049,0 0.158,0.57745 -0.42774,1.28322 -0.58573,0.70577 -0.77822,1.28322 -0.42774,1.28322 0.35049,0 0.20848,0.51662 -0.31557,1.14806 -0.52404,0.63143 -0.6995,1.40136 -0.38991,1.71096 0.3096,0.30959 0.1957,0.5629 -0.25311,0.5629 -0.4488,0 -0.88082,0.86047 -0.96004,1.91216 -0.0792,1.05168 -0.54851,2.04698 -1.04287,2.21176 -0.49434,0.16479 -0.68122,0.6517 -0.41525,1.08202 0.26595,0.43033 0.0531,0.78242 -0.47291,0.78242 -0.52605,0 -0.71853,0.38496 -0.42774,0.85548 0.2908,0.47051 0.12104,0.85548 -0.37725,0.85548 -0.49828,0 -0.90597,0.57745 -0.90597,1.28322 0,0.70577 -0.40768,1.28322 -0.90597,1.28322 -0.49828,0 -0.66804,0.38496 -0.37725,0.85548 0.2908,0.47051 0.12104,0.85548 -0.37725,0.85548 -0.49828,0 -0.90597,0.57745 -0.90597,1.28322 0,0.70577 -0.38496,1.28322 -0.85548,1.28322 -0.47051,0 -0.85548,0.5639 -0.85548,1.25312 0,0.68922 -0.76609,1.66312 -1.70244,2.16424 -0.93634,0.50112 -1.62677,1.18835 -1.53426,1.52719 0.24348,0.89192 -10.08483,11.30957 -11.21259,11.30957 -0.52214,0 -0.94935,0.39704 -0.94935,0.88232 0,0.48529 -0.67369,1.13954 -1.49709,1.45391 -0.82339,0.31435 -2.22908,1.25138 -3.12373,2.08226 -0.89466,0.83089 -1.95332,1.30881 -2.35257,1.06205 -0.39926,-0.24675 -0.72593,-0.0182 -0.72593,0.50782 0,0.52605 -0.38496,0.71853 -0.85548,0.42774 -0.47051,-0.2908 -0.85548,-0.0983 -0.85548,0.42774 0,0.52605 -0.38496,0.71853 -0.85548,0.42774 -0.47051,-0.2908 -0.85548,-0.0983 -0.85548,0.42774 0,0.52605 -0.35208,0.73885 -0.78241,0.4729 -0.43032,-0.26596 -0.91153,-0.10733 -1.06935,0.35251 -0.15782,0.45983 -1.05687,0.95457 -1.9979,1.09942 -0.94102,0.14485 -2.19216,0.56367 -2.7803,0.93072 -0.58815,0.36703 -1.06935,0.40501 -1.06935,0.0844 0,-0.32064 -0.56059,-0.11774 -1.24575,0.4509 -0.68516,0.56863 -1.62098,0.80197 -2.07959,0.51853 -0.45862,-0.28343 -1.06051,-0.14859 -1.33754,0.29966 -0.27703,0.44825 -1.1698,0.84481 -1.98394,0.88126 -0.81413,0.0364 -3.02011,0.29409 -4.90216,0.57254 -4.78069,0.70731 -29.16318,0.90075 -30.99785,0.24593 z m 28.62085,-14.95257 c 1.04523,-0.30428 2.20012,-0.59738 2.56644,-0.65134 0.36632,-0.054 1.35221,-0.68562 2.19086,-1.40369 0.83865,-0.71809 1.74081,-1.17181 2.00478,-1.00828 0.78592,0.48686 5.43125,-4.34545 4.94055,-5.13942 -0.24834,-0.40183 0.1481,-0.96071 0.88099,-1.24195 0.73289,-0.28123 1.11954,-0.85597 0.85921,-1.27717 -0.26032,-0.42121 -0.11052,-0.76584 0.33288,-0.76584 0.7729,0 2.14617,-3.15688 1.95375,-4.49127 -0.0509,-0.35289 0.31516,-0.64161 0.81345,-0.64161 0.49828,0 0.68448,-0.35837 0.41378,-0.79637 -0.27071,-0.43801 -0.11775,-1.02778 0.33988,-1.31062 0.45765,-0.28283 0.61522,-1.07937 0.35018,-1.77007 -0.26505,-0.6907 -0.033,-1.25582 0.51559,-1.25582 0.54862,0 0.74817,-0.4034 0.44345,-0.89645 -0.30471,-0.49304 -0.27793,-1.5517 0.0595,-2.35257 0.33747,-0.80087 0.72007,-2.41854 0.85026,-3.59482 0.41589,-3.75796 0.31963,-37.03497 -0.12127,-41.91852 -0.23363,-2.58783 -0.5332,-5.88954 -0.66571,-7.33713 -0.1325,-1.4476 -0.53147,-3.10214 -0.88661,-3.67676 -0.35513,-0.57462 -0.43592,-1.59145 -0.17952,-2.25962 0.25641,-0.66817 0.0718,-1.45861 -0.41025,-1.75653 -0.48204,-0.29792 -0.67452,-1.06785 -0.42774,-1.71096 0.24679,-0.64311 0.0543,-1.41304 -0.42774,-1.71096 -0.48204,-0.29792 -0.67452,-1.06785 -0.42774,-1.71096 0.24679,-0.64311 0.0743,-1.4007 -0.38338,-1.68354 -0.45765,-0.28283 -0.62704,-0.84601 -0.37643,-1.2515 0.2506,-0.40549 0.0581,-0.98294 -0.42774,-1.28322 -0.48587,-0.30028 -0.66192,-0.90433 -0.39121,-1.34233 0.2707,-0.43801 0.16924,-0.79637 -0.22546,-0.79637 -0.3947,0 -1.46459,-1.92483 -2.37751,-4.2774 -0.91293,-2.352572 -1.9601,-4.277402 -2.32703,-4.277402 -0.36693,0 -0.66715,-0.484846 -0.66715,-1.077437 0,-0.59259 -0.76994,-1.558267 -1.71096,-2.145949 -0.94103,-0.587681 -1.71096,-1.665418 -1.71096,-2.394971 0,-0.729552 -0.35415,-1.107588 -0.78699,-0.840079 -0.43283,0.267508 -1.5625,-0.499549 -2.51037,-1.704571 -0.94787,-1.205021 -1.92864,-2.074863 -2.17947,-1.932981 -0.25084,0.141883 -1.23848,-0.411954 -2.19476,-1.230749 -0.95628,-0.818793 -1.73869,-1.252864 -1.73869,-0.964601 0,0.288265 -0.57745,0.04488 -1.28322,-0.540861 -0.70578,-0.585738 -1.28322,-0.778221 -1.28322,-0.42774 0,0.35048 -0.51663,0.208474 -1.14807,-0.315569 -0.63143,-0.524044 -1.37575,-0.725115 -1.65404,-0.446826 -0.27829,0.27829 -0.96285,0.223622 -1.52125,-0.121486 -1.28721,-0.795542 -8.84412,-0.821817 -10.11694,-0.03517 -0.52709,0.32576 -1.34331,0.354369 -1.81382,0.06358 -0.47052,-0.290794 -0.85548,-0.12103 -0.85548,0.377252 0,0.498282 -0.76994,0.905968 -1.71096,0.905968 -0.94103,0 -1.71096,0.449127 -1.71096,0.99806 0,0.548932 -0.25066,0.747399 -0.55703,0.441037 -0.30636,-0.306363 -1.04526,0.110683 -1.642,0.92677 -0.59673,0.816086 -1.59202,1.483792 -2.21176,1.483792 -0.61973,0 -1.63418,1.058657 -2.25434,2.35257 -0.62015,1.293914 -1.49151,2.35257 -1.93635,2.35257 -0.44484,0 -0.8088,0.577449 -0.8088,1.28322 0,0.705771 -0.40769,1.28322 -0.90597,1.28322 -0.49828,0 -0.66805,0.384966 -0.37725,0.85548 0.29079,0.470514 0.12103,0.85548 -0.37726,0.85548 -0.49828,0 -0.90596,0.769932 -0.90596,1.71096 0,0.941033 -0.40769,1.710963 -0.90597,1.710963 -0.49828,0 -0.66805,0.38496 -0.37725,0.85548 0.29079,0.47051 0.0983,0.85548 -0.42774,0.85548 -0.52605,0 -0.73498,0.35836 -0.46428,0.79637 0.2707,0.438 0.0947,1.04205 -0.3912,1.34233 -0.48587,0.30028 -0.67835,0.87773 -0.42774,1.28322 0.2506,0.40549 0.0581,0.98294 -0.42774,1.28322 -0.48587,0.30028 -0.67835,0.87773 -0.42774,1.28322 0.2506,0.40549 0.0812,0.96867 -0.37643,1.2515 -0.45764,0.28284 -0.63015,1.04043 -0.38337,1.68354 0.24678,0.64311 0.0312,1.42732 -0.47906,1.74268 -0.51026,0.31536 -0.70627,0.93175 -0.43557,1.36975 0.2707,0.438 0.20679,1.25814 -0.14201,1.82252 -0.34881,0.56438 -0.7239,1.81552 -0.83354,2.78031 -0.10964,0.96479 -0.42774,3.67899 -0.70689,6.03156 -0.66051,5.5665 -0.65902,18.40945 0.003,24.38118 0.28681,2.58782 0.6074,5.49451 0.71244,6.4593 0.10503,0.96478 0.48774,2.23436 0.85048,2.82128 0.36273,0.58691 0.44973,1.61379 0.19333,2.28197 -0.25641,0.66817 -0.0718,1.45861 0.41025,1.75653 0.48204,0.29791 0.67452,1.06784 0.42774,1.71096 -0.24678,0.6431 -0.0543,1.41304 0.42774,1.71096 0.48204,0.29791 0.66979,1.08017 0.41723,1.73835 -0.25257,0.65818 -0.0452,1.19669 0.46094,1.19669 0.50609,0 0.69857,0.57745 0.42774,1.28322 -0.27083,0.70577 -0.0783,1.28322 0.42774,1.28322 0.50609,0 0.70812,0.55258 0.44895,1.22794 -0.25916,0.67538 -0.14313,1.34907 0.25785,1.49709 0.40098,0.14804 0.86056,1.03908 1.02129,1.98011 0.16073,0.94102 0.48472,1.90344 0.71998,2.1387 0.80931,0.80931 3.73001,7.27231 3.57605,7.91319 -0.0848,0.35288 0.25355,0.64161 0.75183,0.64161 0.49829,0 0.66637,0.38768 0.37352,0.86152 -0.29285,0.47384 0.0694,1.09247 0.80499,1.37474 0.7356,0.28228 1.33745,0.87243 1.33745,1.31145 0,1.05278 7.0795,7.94482 7.93699,7.72683 0.36598,-0.093 0.88752,0.40964 1.15899,1.11707 0.27147,0.70743 0.83821,1.07325 1.25942,0.81293 0.42122,-0.26033 0.76585,-0.0429 0.76585,0.48314 0,0.52605 0.38496,0.71853 0.85548,0.42774 0.47051,-0.2908 0.85548,-0.0983 0.85548,0.42774 0,0.52605 0.35836,0.73497 0.79636,0.46427 0.43801,-0.2707 1.02778,-0.11775 1.31062,0.33989 0.28284,0.45764 1.04043,0.63016 1.68354,0.38337 0.64311,-0.24678 1.36369,-0.13373 1.60129,0.25124 0.48901,0.79228 11.14455,0.62778 14.04593,-0.21684 z"
     id="path9698"
     transform="matrix(0.75000002,0,0,0.75000002,-3.1546294e-4,0)" />
  <path
     style="fill:#333333;stroke-width:0.85548"
     d="m 399.20058,294.8452 c -0.64022,-0.42796 -1.84792,-0.59928 -2.68376,-0.3807 -0.83584,0.21858 -1.75602,0.0151 -2.04485,-0.45228 -0.28883,-0.46733 -1.29469,-0.64846 -2.23525,-0.4025 -0.94056,0.24596 -1.71038,0.11358 -1.71071,-0.29418 -3.3e-4,-0.40776 -1.01304,-0.80004 -2.25045,-0.87172 -1.23742,-0.0717 -2.57863,-0.64913 -2.98048,-1.28322 -0.40184,-0.63409 -0.73652,-0.81702 -0.74373,-0.40653 -0.007,0.4105 -0.52972,0.3176 -1.16116,-0.20644 -0.63143,-0.52405 -1.40136,-0.6995 -1.71096,-0.38992 -0.30959,0.3096 -0.5629,0.0911 -0.5629,-0.48564 0,-0.57671 -0.38496,-0.81063 -0.85548,-0.51984 -0.47051,0.2908 -0.85548,0.0983 -0.85548,-0.42773 0,-0.52606 -0.38496,-0.71854 -0.85548,-0.42774 -0.47051,0.29079 -0.85548,0.0983 -0.85548,-0.42774 0,-0.52606 -0.3613,-0.73316 -0.8029,-0.46024 -0.44159,0.27292 -1.19982,-0.18557 -1.68494,-1.01886 -0.48513,-0.8333 -0.89965,-1.13012 -0.92116,-0.6596 -0.0215,0.47051 -0.40415,0.27803 -0.85029,-0.42774 -0.44615,-0.70578 -1.11395,-1.30857 -1.48399,-1.33956 -1.03723,-0.0868 -9.65536,-8.82017 -9.65536,-9.78442 0,-0.46901 -0.40768,-0.85274 -0.90596,-0.85274 -0.49829,0 -0.68837,-0.35209 -0.42241,-0.78242 0.26595,-0.43032 0.12506,-0.91153 -0.3131,-1.06935 -0.43815,-0.15782 -0.92176,-0.86438 -1.07468,-1.57015 -0.15291,-0.70578 -0.58647,-1.51062 -0.96347,-1.78854 -0.37699,-0.27793 -0.79465,-1.52968 -0.92813,-2.78168 -0.13349,-1.252 -0.49873,-2.53239 -0.81165,-2.84532 -1.73073,-1.73072 0.80796,-19.08765 2.8988,-19.81902 0.45117,-0.15782 0.6027,-0.63903 0.33675,-1.06935 -0.26596,-0.43032 -0.0532,-0.78241 0.47289,-0.78241 0.52605,0 0.71854,-0.38497 0.42774,-0.85548 -0.29079,-0.47052 -0.0983,-0.85548 0.42774,-0.85548 0.52605,0 0.71854,-0.38497 0.42774,-0.85548 -0.29079,-0.47052 -0.0983,-0.85548 0.42774,-0.85548 0.52605,0 0.71686,-0.38769 0.42401,-0.86152 -0.29285,-0.47385 0.0672,-1.09163 0.80008,-1.37287 0.73289,-0.28123 1.11786,-0.85868 0.85548,-1.28322 -0.26238,-0.42453 0.1248,-1.00283 0.86039,-1.2851 0.73559,-0.28228 1.33744,-0.8319 1.33744,-1.22139 0,-0.86452 9.58732,-10.61311 10.46316,-10.63917 0.34382,-0.0103 1.23634,-0.89121 1.98336,-1.95774 0.74703,-1.06652 1.69026,-1.73393 2.09607,-1.48313 0.4058,0.25081 0.95816,0.0995 1.22746,-0.33623 0.68959,-1.11578 -0.39073,-3.6021 -1.31653,-3.02993 -0.42121,0.26032 -0.76584,0.0656 -0.76584,-0.43265 0,-0.49829 -0.39779,-0.90597 -0.88399,-0.90597 -1.14843,0 -7.30869,-6.16442 -7.0292,-7.03395 0.11763,-0.36596 -0.12439,-0.66537 -0.53782,-0.66537 -0.71743,0 -3.00689,-4.61836 -3.18065,-6.4161 -0.0455,-0.47052 -0.38537,-1.5552 -0.75533,-2.4104 -0.85446,-1.97521 0.008,-10.61666 1.20262,-12.05669 0.49707,-0.59893 0.65047,-1.34228 0.34087,-1.65188 -0.30959,-0.30959 -0.11377,-0.56289 0.43516,-0.56289 0.54894,0 0.92179,-0.28873 0.82857,-0.64161 -0.31791,-1.20344 1.13784,-4.49127 1.98859,-4.49127 0.46658,0 0.6104,-0.38497 0.3196,-0.85548 -0.29079,-0.47052 -0.0983,-0.85548 0.42774,-0.85548 0.52605,0 0.71686,-0.38769 0.42401,-0.86152 -0.29285,-0.47384 0.0694,-1.09248 0.80499,-1.37475 0.73559,-0.28227 1.33744,-1.03594 1.33744,-1.67482 0,-0.63888 0.78072,-1.57942 1.73492,-2.0901 0.95421,-0.51068 1.52324,-1.27102 1.26451,-1.68965 -0.25873,-0.41863 0.83473,-1.80256 2.42992,-3.0754 2.84077,-2.26669 3.4599,-5.48788 1.05479,-5.48788 -1.26059,0 -6.48414,-5.3001 -6.48414,-6.57917 0,-0.51541 -0.63255,-1.17983 -1.40566,-1.4765 -0.77311,-0.29667 -1.18971,-0.75537 -0.92576,-1.01931 0.26395,-0.26395 -0.16216,-1.22978 -0.94691,-2.1463 -0.78474,-0.91651 -1.29768,-1.8996 -1.13987,-2.18462 0.15782,-0.28503 -0.15019,-0.78839 -0.68447,-1.11859 -0.53427,-0.3302 -1.03403,-1.4319 -1.11059,-2.44822 -0.0766,-1.01632 -0.41165,-1.84785 -0.74465,-1.84785 -0.51212,0 -1.61414,-3.34236 -2.11548,-6.4161 -0.0767,-0.47052 -0.23306,-1.04797 -0.34739,-1.28322 -1.13609,-2.33789 -1.84358,-22.05305 -0.81422,-22.68923 0.4125,-0.25494 0.54808,-0.98971 0.3013,-1.63282 -0.24678,-0.64311 -0.0543,-1.41304 0.42774,-1.71096 0.48204,-0.29791 0.65958,-1.10679 0.39453,-1.79749 -0.26504,-0.6907 -0.033,-1.25582 0.51559,-1.25582 0.54863,0 0.77602,-0.35837 0.50532,-0.79637 -0.2707,-0.438 -0.0947,-1.04205 0.3912,-1.34233 0.48587,-0.30028 0.66191,-0.90433 0.39121,-1.342334 -0.2707,-0.438002 -0.0618,-0.796368 0.46427,-0.796368 0.52605,0 0.71854,-0.384966 0.42774,-0.85548 -0.29079,-0.470514 -0.0983,-0.85548 0.42774,-0.85548 0.52605,0 0.71854,-0.384966 0.42774,-0.85548 -0.29079,-0.470514 -0.12103,-0.85548 0.37726,-0.85548 0.49828,0 0.90596,-0.577449 0.90596,-1.28322 0,-0.705771 0.40769,-1.28322 0.90597,-1.28322 0.49828,0 0.67998,-0.365651 0.40378,-0.812558 -0.2762,-0.446906 0.27853,-1.230383 1.23273,-1.741058 0.95421,-0.510676 1.73492,-1.416889 1.73492,-2.013806 0,-1.345645 5.27714,-6.553817 6.6406,-6.553817 0.54919,0 1.40853,-0.766101 1.90965,-1.702447 0.50111,-0.936345 1.19578,-1.610035 1.54371,-1.49709 0.34792,0.112947 1.54963,-0.647505 2.67045,-1.689891 1.12083,-1.042385 2.36453,-1.693357 2.76379,-1.446602 0.39926,0.246756 0.72592,0.01824 0.72592,-0.50781 0,-0.526051 0.38497,-0.718534 0.85548,-0.42774 0.47052,0.290794 0.85548,0.09831 0.85548,-0.42774 0,-0.526051 0.38497,-0.718534 0.85548,-0.42774 0.47052,0.290794 0.85548,0.09831 0.85548,-0.42774 0,-0.526051 0.35209,-0.738855 0.78242,-0.472898 0.43032,0.265957 0.91153,0.107326 1.06935,-0.352512 0.15781,-0.459839 1.05687,-0.981852 1.99789,-1.16003 0.94103,-0.178178 2.3308,-0.594797 3.08837,-0.92582 0.75757,-0.331023 2.31372,-0.701688 3.45811,-0.823699 1.14438,-0.122011 2.50705,-0.485338 3.02814,-0.807392 1.22066,-0.754405 2.30426,-0.800925 18.65622,-0.800925 16.62039,0 17.3308,0.03958 17.92354,0.998655 0.25904,0.419141 1.24053,0.560834 2.1811,0.314873 0.99367,-0.259853 1.7101,-0.02586 1.7101,0.55854 0,0.553159 0.38497,0.767822 0.85548,0.477028 0.47052,-0.290794 1.29952,-0.254288 1.84223,0.08113 0.87403,0.540186 6.51013,0.753773 8.20966,0.311115 0.35289,-0.09191 0.93034,-0.121525 1.28322,-0.0658 0.35289,0.05572 0.64161,-0.306379 0.64161,-0.804661 0,-0.498282 0.38497,-0.668046 0.85548,-0.377252 0.47052,0.290794 0.85548,0.09831 0.85548,-0.42774 0,-0.526051 0.38497,-0.718534 0.85548,-0.42774 0.47052,0.290794 0.85548,0.09831 0.85548,-0.42774 0,-0.52605 0.38497,-0.718533 0.85548,-0.42774 0.47052,0.290794 0.85548,0.09831 0.85548,-0.42774 0,-0.52605 0.38497,-0.718533 0.85548,-0.42774 0.47052,0.290794 0.85548,0.09831 0.85548,-0.42774 0,-0.52605 0.38497,-0.718533 0.85548,-0.42774 0.47052,0.290794 0.85548,0.12103 0.85548,-0.377252 0,-0.498282 0.28873,-0.824181 0.64161,-0.724219 0.35289,0.09996 1.50779,-0.298549 2.56644,-0.885579 1.05866,-0.587034 1.92483,-0.814166 1.92483,-0.504743 0,0.309423 0.57745,0.08335 1.28322,-0.50239 0.70577,-0.585738 1.28322,-0.778221 1.28322,-0.42774 0,0.350481 0.48121,0.257609 1.06935,-0.206383 1.41895,-1.119426 2.78168,-1.273938 11.12124,-1.260979 9.12343,0.01418 10.05189,0.119778 10.05189,1.143277 0,0.46904 0.38497,0.614879 0.85548,0.324085 0.47052,-0.290794 0.85548,-0.12103 0.85548,0.377252 0,0.498282 0.51779,0.905968 1.15063,0.905968 0.63285,0 1.84741,0.769932 2.69903,1.71096 0.85162,0.941028 1.26876,1.71096 0.92697,1.71096 -0.34179,0 -0.0129,0.608485 0.73075,1.352189 0.7437,0.743703 1.14989,1.679517 0.90263,2.079587 -0.24726,0.40007 -0.0583,0.969202 0.41988,1.26474 0.47819,0.295536 0.86943,1.839282 0.86943,3.430544 0,1.591262 -0.39124,3.135007 -0.86943,3.430544 -0.47819,0.295537 -0.64796,0.895705 -0.37725,1.333708 0.2707,0.438002 0.0618,0.796368 -0.46428,0.796368 -0.52605,0 -0.71853,0.384966 -0.42774,0.85548 0.2908,0.470514 0.16593,0.85548 -0.27747,0.85548 -0.44341,0 -1.01767,0.808665 -1.27613,1.797035 -0.25847,0.988368 -0.85716,1.557721 -1.33042,1.265226 -0.47327,-0.292494 -1.2574,0.14998 -1.74253,0.983276 -0.48512,0.833295 -0.89375,1.179221 -0.90805,0.768723 -0.0143,-0.410497 -0.50723,-0.366729 -1.09537,0.09726 -1.73839,1.37143 -6.68477,1.509874 -11.80954,0.330536 -0.97394,-0.224126 -6.98222,-6.09858 -6.26306,-6.123553 0.41202,-0.0143 0.0673,-0.422934 -0.76595,-0.908057 -0.8333,-0.485125 -1.31874,-1.199732 -1.07877,-1.588015 0.40702,-0.658583 -2.03021,-3.266637 -2.66153,-2.848066 -0.158,0.104756 -0.87367,-0.03455 -1.59037,-0.309578 -0.71671,-0.275024 -1.85878,-0.03887 -2.53795,0.524791 -0.67916,0.56366 -1.61736,0.788429 -2.08488,0.499488 -0.46752,-0.288942 -1.26786,0.255365 -1.77853,1.209571 -0.66983,1.251578 -0.66772,1.734921 0.008,1.734921 0.51483,0 0.69815,0.384966 0.40735,0.85548 -0.29079,0.470514 -0.12103,0.85548 0.37725,0.85548 0.49828,0 0.90597,0.577449 0.90597,1.28322 0,0.705771 0.38497,1.28322 0.85548,1.28322 0.47052,0 0.85548,0.536261 0.85548,1.191693 0,0.655431 0.60185,1.422644 1.33744,1.704917 0.7356,0.282274 1.09616,0.903629 0.80126,1.380789 -0.2949,0.477161 0.0657,1.098515 0.80126,1.38079 0.73559,0.282273 1.33744,1.049486 1.33744,1.704917 0,0.655431 0.29743,1.191693 0.66095,1.191693 0.81457,0 3.61122,5.08711 4.03233,7.334815 0.16978,0.90625 0.38627,1.74397 0.48108,1.8616 0.0948,0.11763 0.25376,0.50259 0.35321,0.85548 0.0995,0.35288 0.404,1.21906 0.67677,1.92483 0.77291,1.99982 0.86214,3.5507 0.84905,14.75703 -0.0156,13.35663 -0.0711,14.14275 -1.04076,14.74203 -0.44276,0.27364 -0.58817,1.06265 -0.32312,1.75335 0.26505,0.69071 0.033,1.25583 -0.51559,1.25583 -0.54862,0 -0.77602,0.35836 -0.50532,0.79637 0.27071,0.438 0.0947,1.04205 -0.3912,1.34233 -0.48586,0.30028 -0.66191,0.90433 -0.3912,1.34233 0.2707,0.438 0.0618,0.79637 -0.46428,0.79637 -0.52605,0 -0.71853,0.38496 -0.42774,0.85548 0.2908,0.47051 0.0983,0.85548 -0.42774,0.85548 -0.52605,0 -0.75457,0.32666 -0.50781,0.72592 0.24675,0.39926 -0.30797,1.53806 -1.23273,2.53067 -0.92476,0.99261 -1.68138,2.16462 -1.68138,2.60447 0,0.43985 -0.57745,1.02131 -1.28322,1.29214 -0.70577,0.27083 -1.28322,1.00382 -1.28322,1.62887 0,1.47285 -6.34705,7.68368 -7.09146,6.93926 -0.31217,-0.31217 -0.81032,0.0649 -1.10699,0.83808 -0.29667,0.77312 -1.07566,1.40567 -1.7311,1.40567 -0.65542,0 -1.19169,0.29742 -1.19169,0.66094 0,0.73421 -4.83741,3.42091 -6.84384,3.80107 -0.70577,0.13372 -1.49253,0.52232 -1.74835,0.86356 -0.25583,0.34123 -1.41073,0.7262 -2.56644,0.85548 -1.15572,0.12928 -2.32043,0.53011 -2.58824,0.89074 -0.26782,0.36063 -2.19264,0.88087 -4.2774,1.15609 -2.08476,0.27521 -5.13785,0.70014 -6.78465,0.94427 -5.35951,0.79456 -25.75134,1.24535 -27.22423,0.60184 -0.78889,-0.34467 -2.07393,-0.54908 -2.85565,-0.45426 -0.78172,0.0948 -1.66022,-0.21416 -1.95223,-0.68664 -0.292,-0.47247 -1.09604,-0.64219 -1.78674,-0.37715 -0.69071,0.26506 -1.25583,0.0678 -1.25583,-0.43825 0,-0.50609 -0.57745,-0.69857 -1.28322,-0.42774 -0.70577,0.27084 -1.28322,0.10231 -1.28322,-0.3745 0,-0.4768 -0.7656,-0.6667 -1.70134,-0.422 -0.93573,0.2447 -1.49046,0.78611 -1.23273,1.20313 0.25774,0.41702 0.18944,1.20993 -0.15177,1.76201 -1.14742,1.85656 -1.9161,12.73561 -1.02901,14.56337 0.38753,0.79846 0.78593,2.43457 0.88535,3.63579 0.0994,1.20123 0.54592,2.18405 0.99223,2.18405 0.44631,0 0.55728,0.25419 0.2466,0.56488 -0.31069,0.31067 0.20904,1.10695 1.15495,1.76949 0.9459,0.66254 1.49229,1.57277 1.21419,2.02276 -0.2781,0.44997 -0.1883,0.74914 0.19956,0.66482 0.38785,-0.0844 2.24506,0.53565 4.12711,1.37772 2.39732,1.07262 5.08689,1.46438 8.98254,1.30838 11.45702,-0.45877 46.76853,-0.26644 50.47332,0.27491 2.11731,0.30938 4.69676,0.5705 5.73209,0.58027 1.03534,0.01 2.1206,0.4031 2.41169,0.8741 0.29108,0.47098 0.85531,0.65482 1.25382,0.40852 0.39852,-0.2463 1.81555,-8.5e-4 3.14894,0.54455 1.3334,0.5458 3.17759,1.13572 4.09819,1.31094 0.9206,0.17523 1.92606,0.72671 2.23434,1.22552 0.30829,0.49883 0.70997,0.81759 0.89261,0.70836 0.75079,-0.44897 4.18176,1.08657 4.18176,1.87155 0,0.46658 0.38497,0.6104 0.85548,0.31961 0.47052,-0.2908 0.85548,-0.0983 0.85548,0.42774 0,0.52605 0.38769,0.71685 0.86152,0.424 0.47384,-0.29284 1.09163,0.0671 1.37287,0.80008 0.28123,0.7329 0.83665,1.13147 1.23425,0.88574 0.3976,-0.24573 1.14074,0.33393 1.65142,1.28813 0.51068,0.95422 1.42038,1.73493 2.02157,1.73493 1.31048,0 5.69057,4.41026 5.69057,5.72977 0,0.51206 0.60185,1.16196 1.33744,1.44424 0.73559,0.28227 1.09784,0.9009 0.805,1.37475 -0.29285,0.47383 -0.17147,0.86152 0.26972,0.86152 0.74004,0 2.99723,4.43747 3.26365,6.4161 0.0634,0.47051 0.19325,1.04796 0.28867,1.28322 0.58852,1.45111 0.55886,12.92929 -0.0344,13.29593 -0.39739,0.2456 -0.50567,1.01166 -0.24062,1.70237 0.26505,0.69069 0.0678,1.25582 -0.43826,1.25582 -0.50608,0 -0.69857,0.57744 -0.42774,1.28322 0.27084,0.70577 0.0663,1.28322 -0.45458,1.28322 -0.52086,0 -0.85548,0.28872 -0.7436,0.64161 0.34302,1.08199 -2.07099,6.20223 -2.92413,6.20223 -0.4412,0 -0.56426,0.38496 -0.27346,0.85548 0.29079,0.47051 0.12103,0.85548 -0.37725,0.85548 -0.49828,0 -0.90597,0.58952 -0.90597,1.31006 0,0.72055 -0.57745,1.53166 -1.28322,1.80249 -0.70577,0.27083 -1.28322,0.84457 -1.28322,1.27497 0,1.05422 -9.63955,10.63783 -10.43859,10.37802 -0.34736,-0.11294 -1.04734,0.57153 -1.55551,1.52105 -0.50817,0.94952 -1.24926,1.52535 -1.64686,1.27962 -0.3976,-0.24573 -0.94366,0.12845 -1.21345,0.83152 -0.26975,0.70306 -1.08002,1.27831 -1.80056,1.27831 -0.72054,0 -1.31007,0.40768 -1.31007,0.90597 0,0.49828 -0.34463,0.69297 -0.76584,0.43265 -0.42121,-0.26033 -0.99594,0.12632 -1.27717,0.85921 -0.28124,0.73289 -0.89903,1.09292 -1.37287,0.80008 -0.47383,-0.29284 -0.86152,-0.10205 -0.86152,0.42401 0,0.52605 -0.38496,0.71853 -0.85548,0.42774 -0.47051,-0.2908 -0.85548,-0.1795 -0.85548,0.24732 0,0.85334 -6.83947,4.159 -7.89578,3.81621 -0.36246,-0.11763 -0.65902,0.17109 -0.65902,0.64161 0,0.47051 -0.28872,0.77369 -0.64161,0.67373 -0.35288,-0.1 -1.4787,0.28297 -2.50179,0.85098 -1.0231,0.568 -2.75545,1.19863 -3.84966,1.40139 -1.09422,0.20277 -2.08572,0.4454 -2.20335,0.53918 -0.11763,0.0938 -0.50259,0.22452 -0.85548,0.29054 -0.35288,0.066 -1.14843,0.44142 -1.76787,0.83421 -0.61945,0.39279 -1.35396,0.48648 -1.63225,0.20819 -0.27829,-0.27829 -0.96168,-0.12778 -1.51865,0.33446 -0.55697,0.46224 -2.13225,0.98573 -3.50063,1.16331 -1.36838,0.17758 -3.06542,0.53369 -3.77119,0.79133 -0.70577,0.25765 -1.86067,0.5111 -2.56644,0.56324 -0.70577,0.0521 -2.82308,0.31595 -4.70514,0.58624 -7.57919,1.08852 -11.7022,1.37463 -24.80892,1.7216 -7.52822,0.19928 -14.2115,0.0122 -14.85173,-0.41578 z m 38.42063,-15.00625 c 1.20005,-0.11704 2.64367,-0.49819 3.20805,-0.84699 0.56438,-0.34881 1.38452,-0.41272 1.82252,-0.14202 0.438,0.27071 1.05439,0.0747 1.36975,-0.43557 0.31536,-0.51027 1.09957,-0.72584 1.74268,-0.47906 0.64311,0.24679 1.4007,0.0743 1.68353,-0.38338 0.28284,-0.45763 0.87262,-0.61059 1.31063,-0.33988 0.43799,0.2707 0.79636,0.0433 0.79636,-0.50531 0,-0.54862 0.57745,-0.77591 1.28322,-0.50508 0.70577,0.27083 1.28322,0.0968 1.28322,-0.3867 0,-0.48352 0.38497,-0.6412 0.85548,-0.3504 0.47052,0.29079 0.85548,0.20542 0.85548,-0.18971 0,-0.73884 5.05509,-3.11557 6.20223,-2.91606 0.35289,0.0613 0.64161,-0.2961 0.64161,-0.79439 0,-0.49828 0.38769,-0.66635 0.86152,-0.37351 0.47384,0.29284 1.09248,-0.0694 1.37475,-0.80499 0.28227,-0.7356 0.80201,-1.33744 1.15497,-1.33744 0.83855,0 9.77493,-8.77942 9.82796,-9.65535 0.0224,-0.37006 0.61819,-1.03785 1.32396,-1.484 0.70577,-0.44615 0.967,-0.81707 0.5805,-0.82428 -0.38648,-0.007 -0.0942,-0.62158 0.64948,-1.36528 0.7437,-0.74371 1.13345,-1.70612 0.86609,-2.1387 -0.26734,-0.43259 -0.0905,-0.78651 0.39304,-0.78651 0.48351,0 0.65753,-0.57745 0.3867,-1.28322 -0.27084,-0.70578 -0.15081,-1.28322 0.2667,-1.28322 1.06211,0 0.69092,-8.56545 -0.53173,-12.27012 -0.97997,-2.96932 -6.25924,-9.11688 -7.82921,-9.11688 -0.42346,0 -0.76993,-0.40769 -0.76993,-0.90597 0,-0.49829 -0.38496,-0.66805 -0.85548,-0.37725 -0.47051,0.29079 -0.85548,0.0983 -0.85548,-0.42774 0,-0.52606 -0.38496,-0.71854 -0.85548,-0.42774 -0.47051,0.29079 -0.85548,0.0983 -0.85548,-0.42774 0,-0.52606 -0.38496,-0.71854 -0.85548,-0.42774 -0.47051,0.29079 -0.85548,0.0983 -0.85548,-0.42774 0,-0.52606 -0.35266,-0.73851 -0.78369,-0.47211 -0.43103,0.26639 -1.87465,0.06 -3.20805,-0.45863 -1.3334,-0.51864 -3.57926,-1.07998 -4.9908,-1.24741 -19.99262,-2.37154 -53.60013,-3.26473 -57.10329,-1.51763 -1.29391,0.6453 -2.35257,0.92376 -2.35257,0.61882 0,-0.30495 -0.57321,-0.0787 -1.2738,0.5027 -0.70059,0.58144 -1.06115,1.40122 -0.80126,1.82175 0.2599,0.42053 -0.12709,0.99469 -0.85998,1.27593 -0.73289,0.28123 -1.13598,0.82936 -0.89575,1.21807 0.24023,0.38869 0.0393,0.9524 -0.44661,1.25269 -0.48586,0.30028 -0.6619,0.90432 -0.3912,1.34233 0.2707,0.438 0.20705,1.25772 -0.14145,1.8216 -0.89911,1.45479 -1.10329,24.02098 -0.22741,25.13404 0.39931,0.50745 0.84786,1.72104 0.99678,2.69688 0.14893,0.97584 0.7307,2.32843 1.29283,3.00575 0.56213,0.67733 0.76874,1.4848 0.45915,1.7944 -0.30959,0.30959 -0.11377,0.5629 0.43516,0.5629 0.54894,0 0.99806,0.41081 0.99806,0.91292 0,1.01055 6.02209,7.10226 7.08892,7.17087 0.37004,0.0238 0.94749,0.47259 1.28322,0.99731 0.33572,0.52473 1.47658,1.22436 2.53523,1.55474 1.05866,0.33038 1.92483,0.8778 1.92483,1.21647 0,0.33869 0.83154,0.67842 1.84786,0.75498 1.01632,0.0766 2.07498,0.4472 2.35257,0.82366 0.27759,0.37646 1.65961,0.80684 3.07115,0.95641 1.41154,0.14956 2.83553,0.53452 3.16442,0.85548 0.52801,0.51525 13.67879,0.39756 19.549,-0.17495 z m -3.46512,-122.05371 c 0.23526,-0.0835 0.71647,-0.10621 1.06935,-0.0505 0.35289,0.0557 0.64161,-0.34782 0.64161,-0.89676 0,-0.54893 0.25066,-0.7474 0.55703,-0.44103 0.30636,0.30636 1.04526,-0.11068 1.64199,-0.92677 0.59674,-0.81608 1.59722,-1.4838 2.22329,-1.4838 0.62607,0 1.13831,-0.51224 1.13831,-1.13831 0,-0.62607 0.66771,-1.62655 1.4838,-2.22329 0.81608,-0.59673 1.23313,-1.33563 0.92677,-1.642 -0.30637,-0.30635 -0.0852,-0.55702 0.49152,-0.55702 0.5767,0 0.81063,-0.38496 0.51983,-0.85548 -0.29079,-0.47051 -0.12103,-0.85548 0.37725,-0.85548 0.49828,0 0.83264,-0.28872 0.743,-0.64161 -0.20109,-0.79167 1.05441,-6.35131 1.66789,-7.38582 1.11996,-1.88859 1.59939,-25.38784 0.63036,-30.8969 -0.24829,-1.41155 -0.58436,-3.33638 -0.74683,-4.2774 -0.16248,-0.94103 -0.57099,-2.35459 -0.90782,-3.14125 -0.33683,-0.786656 -0.70001,-1.941554 -0.80707,-2.566439 -0.10706,-0.624886 -0.85515,-2.383261 -1.6624,-3.907502 -0.80726,-1.52424 -1.4022,-2.871621 -1.32209,-2.99418 0.0801,-0.122575 -1.35571,-1.724218 -3.19072,-3.559223 -1.835,-1.835004 -3.36387,-3.182385 -3.39747,-2.994179 -0.0336,0.188205 -0.73834,-0.335037 -1.56606,-1.162761 -0.82773,-0.827724 -1.85889,-1.286213 -2.29147,-1.018862 -0.43258,0.267349 -0.78651,0.05568 -0.78651,-0.470365 0,-0.526051 -0.38496,-0.718534 -0.85548,-0.42774 -0.47051,0.290793 -1.30859,0.248677 -1.86239,-0.09359 -1.86194,-1.15074 -8.80174,-0.610315 -12.25303,0.954183 -1.88205,0.853153 -3.6144,1.594881 -3.84966,1.648284 -1.0383,0.235695 -5.13288,4.625054 -5.13288,5.502413 0,0.534188 -0.40768,0.971251 -0.90596,0.971251 -0.49829,0 -0.68723,0.35393 -0.41988,0.786512 0.26735,0.432581 -0.0766,1.349167 -0.76426,2.036857 -0.68769,0.68769 -1.01203,1.488658 -0.72076,1.779928 0.29127,0.291271 0.0925,0.529583 -0.44163,0.529583 -0.53416,0 -0.74962,0.577449 -0.47879,1.28322 0.27083,0.705771 0.0435,1.28322 -0.50508,1.28322 -0.54862,0 -0.75957,0.384966 -0.46878,0.85548 0.2908,0.470514 0.24333,1.31725 -0.10548,1.88163 -0.89733,1.45191 -1.09915,4.13794 -1.0799,14.37249 0.0202,10.71835 0.25421,13.89196 1.12889,15.30724 0.36056,0.58339 0.42787,1.2884 0.14958,1.56669 -0.27829,0.27829 -0.0695,1.03191 0.46398,1.67472 0.53348,0.6428 0.75957,1.37913 0.50243,1.63627 -0.25715,0.25715 0.0533,1.47139 0.68979,2.6983 0.63653,1.22692 0.96183,2.54709 0.72288,2.93371 -0.23894,0.38662 -0.11116,0.70295 0.28397,0.70295 0.69627,0 2.55449,4.06673 2.43558,5.33027 -0.0324,0.34383 0.80734,1.23183 1.86599,1.97335 1.05866,0.74151 1.92483,1.90381 1.92483,2.5829 0,0.6791 0.55562,1.23472 1.23471,1.23472 0.67909,0 1.77228,0.76748 2.42931,1.70552 0.65702,0.93803 1.44878,1.45132 1.75947,1.14063 0.31068,-0.31068 0.56487,-0.093 0.56487,0.48367 0,0.57671 0.38497,0.81063 0.85548,0.51984 0.47052,-0.2908 0.85548,-0.0983 0.85548,0.42774 0,0.52605 0.28873,0.78272 0.64161,0.57037 0.35289,-0.21235 2.18148,-0.11988 4.06353,0.20549 2.92857,0.50628 8.44707,0.52244 9.83802,0.0288 z"
     id="path9737"
     transform="matrix(0.75000002,0,0,0.75000002,-3.1546294e-4,0)" />
  <path
     style="fill:#333333;stroke-width:0.85548"
     d="m 584.36854,218.79343 c -0.17565,-0.17566 -2.0734,-0.49113 -4.21721,-0.70108 -2.14382,-0.20993 -4.97624,-0.82862 -6.29427,-1.37486 -1.31804,-0.54624 -2.68515,-1.07354 -3.03804,-1.17179 -0.35289,-0.0982 -0.83409,-0.27486 -1.06935,-0.39248 -0.23526,-0.11763 -0.71646,-0.29338 -1.06935,-0.39056 -4.38312,-1.20701 -5.34675,-1.62498 -5.34675,-2.31912 0,-0.44727 -0.38497,-0.5753 -0.85548,-0.2845 -0.47051,0.29079 -0.85548,0.16276 -0.85548,-0.28451 0,-0.44728 -0.96241,-1.05478 -2.1387,-1.35001 -1.17628,-0.29523 -2.1387,-0.91441 -2.1387,-1.37596 0,-0.46155 -0.57745,-0.83918 -1.28322,-0.83918 -0.70577,0 -1.28322,-0.38497 -1.28322,-0.85548 0,-0.47052 -0.5639,-0.85548 -1.25312,-0.85548 -0.68922,0 -1.67095,-0.78071 -2.18162,-1.73493 -0.51068,-0.9542 -1.23038,-1.54835 -1.59935,-1.32031 -0.85875,0.53074 -8.01119,-6.71228 -7.31542,-7.40805 0.28668,-0.28668 -0.47127,-1.17156 -1.68434,-1.96639 -1.21307,-0.79484 -1.992,-1.79073 -1.73096,-2.2131 0.26104,-0.42237 -0.12723,-0.9989 -0.86283,-1.28117 -0.73559,-0.28227 -1.33744,-1.04949 -1.33744,-1.70492 0,-0.65543 -0.40769,-1.19169 -0.90597,-1.19169 -0.49828,0 -0.66804,-0.38497 -0.37725,-0.85548 0.29079,-0.47052 0.12103,-0.85548 -0.37725,-0.85548 -0.49828,0 -0.90597,-0.57745 -0.90597,-1.28322 0,-0.70577 -0.40769,-1.28322 -0.90597,-1.28322 -0.49828,0 -0.66804,-0.38497 -0.37725,-0.85548 0.29079,-0.47052 0.0983,-0.85548 -0.42774,-0.85548 -0.52605,0 -0.71853,-0.38497 -0.42774,-0.85548 0.29079,-0.47052 0.12103,-0.85548 -0.37725,-0.85548 -0.49828,0 -0.82418,-0.28873 -0.72422,-0.64161 0.1,-0.35289 -0.27146,-1.45717 -0.82538,-2.45396 -0.55392,-0.99679 -0.76403,-2.05545 -0.46691,-2.35257 0.29712,-0.29712 0.12168,-0.54022 -0.38987,-0.54022 -0.80432,0 -2.20557,-3.82981 -2.34752,-6.4161 -0.0258,-0.47052 -0.34822,-1.33669 -0.71644,-1.92483 -0.36822,-0.58815 -0.448,-1.42772 -0.1773,-1.86572 0.2707,-0.438 0.0853,-1.04785 -0.41205,-1.35522 -0.49733,-0.30736 -0.68043,-1.26398 -0.4069,-2.12581 0.27354,-0.86184 0.0925,-1.81716 -0.40224,-2.12294 -0.49477,-0.30579 -0.93797,-1.58932 -0.98487,-2.85231 -0.3096,-8.33565 -0.12603,-19.99581 0.36611,-23.25559 0.31966,-2.11732 0.60841,-4.51577 0.64167,-5.32991 0.0332,-0.81413 0.42721,-1.70691 0.87546,-1.98394 0.44825,-0.27703 0.59352,-0.86206 0.32282,-1.30006 -0.2707,-0.43801 -0.19092,-1.27758 0.1773,-1.86572 0.36822,-0.58814 0.69062,-1.45432 0.71644,-1.92483 0.14195,-2.5863 1.5432,-6.4161 2.34752,-6.4161 0.51155,0 0.68699,-0.2431 0.38987,-0.54022 -0.29712,-0.29712 -0.087,-1.35578 0.46691,-2.35257 0.55392,-0.99679 0.92534,-2.10108 0.82538,-2.45396 -0.1,-0.35289 0.22594,-0.64161 0.72422,-0.64161 0.49828,0 0.66804,-0.38497 0.37725,-0.85548 -0.29079,-0.47052 -0.0983,-0.85548 0.42774,-0.85548 0.52605,0 0.71853,-0.38497 0.42774,-0.85548 -0.29079,-0.47052 -0.0983,-0.85548 0.42774,-0.85548 0.52605,0 0.71685,-0.38769 0.42401,-0.86152 -0.29285,-0.47384 0.0672,-1.09163 0.80007,-1.37287 0.7329,-0.28123 1.11954,-0.85596 0.85922,-1.27717 -0.26032,-0.42121 -0.0656,-0.765842 0.43265,-0.765842 0.49828,0 0.90597,-0.577449 0.90597,-1.28322 0,-0.705771 0.38497,-1.28322 0.85548,-1.28322 0.47051,0 0.85548,-0.577449 0.85548,-1.28322 0,-0.705771 0.39705,-1.28322 0.88233,-1.28322 0.48528,0 1.13891,-0.668627 1.4525,-1.485838 0.71613,-1.866212 9.83584,-10.929052 10.73505,-10.66811 0.36597,0.106204 0.88837,-0.387921 1.16087,-1.098057 0.27251,-0.710135 1.03173,-1.291154 1.68716,-1.291154 0.65543,0 1.19169,-0.407686 1.19169,-0.905968 0,-0.498282 0.38497,-0.668046 0.85548,-0.377252 0.47051,0.290794 0.85548,0.167734 0.85548,-0.273466 0,-0.853137 5.12024,-3.267141 6.20223,-2.924122 0.35289,0.111875 0.64161,-0.245719 0.64161,-0.794652 0,-0.548933 0.2533,-0.744756 0.5629,-0.435162 0.30959,0.309593 1.07952,0.134134 1.71096,-0.389909 0.63143,-0.524044 1.14806,-0.66605 1.14806,-0.315569 0,0.350481 0.57745,0.157998 1.28322,-0.42774 0.70577,-0.585738 1.28322,-0.778221 1.28322,-0.42774 0,0.350481 0.56059,0.171993 1.24575,-0.396639 0.68516,-0.568633 1.64757,-0.785533 2.1387,-0.482002 0.49112,0.303532 0.89295,0.09929 0.89295,-0.453867 0,-0.584399 0.71643,-0.818393 1.71011,-0.558541 0.94056,0.245962 1.91055,0.122875 2.15554,-0.273528 0.24499,-0.396402 1.11155,-0.74168 1.92568,-0.767285 1.45856,-0.04587 4.35487,-0.494041 9.81844,-1.519288 2.52722,-0.474237 11.51709,-0.634105 19.6332,-0.349141 1.73936,0.06107 3.39906,0.493842 3.68822,0.961714 0.28916,0.467872 1.42257,0.625588 2.51869,0.35048 1.09612,-0.275109 2.25403,-0.07776 2.57312,0.438554 0.3191,0.516314 0.93855,0.71727 1.37655,0.446569 0.438,-0.2707 1.27758,-0.190913 1.86572,0.177305 0.58814,0.368218 1.45432,0.690615 1.92483,0.716439 2.10528,0.115546 6.4161,1.474679 6.4161,2.022892 0,0.333002 0.86048,0.670275 1.91216,0.749497 1.05168,0.07922 2.04698,0.548508 2.21177,1.04286 0.16478,0.494352 0.65169,0.68122 1.08202,0.415263 0.43032,-0.265957 0.78241,-0.05315 0.78241,0.472898 0,0.526051 0.38496,0.718534 0.85548,0.42774 0.47051,-0.290794 0.85548,-0.12103 0.85548,0.377252 0,0.498282 0.57745,0.905968 1.28322,0.905968 0.70577,0 1.28322,0.407685 1.28322,0.905968 0,0.498282 0.34463,0.692976 0.76584,0.432653 0.42121,-0.260323 0.99594,0.126323 1.27717,0.859215 0.28124,0.73289 0.87537,1.107548 1.32029,0.832573 0.44492,-0.274975 1.20586,0.181832 1.69099,1.015128 0.48512,0.833295 0.89375,1.228878 0.90805,0.879073 0.0143,-0.349806 2.79829,2.152473 6.18662,5.560619 3.38833,3.408147 6.08693,6.473861 5.99688,6.812698 -0.0901,0.338837 0.61315,1.031843 1.56267,1.540012 0.94953,0.50817 1.52536,1.249257 1.27962,1.646861 -0.24573,0.397605 0.15285,0.953019 0.88575,1.234256 0.73289,0.281236 1.09292,0.899025 0.80008,1.372865 -0.29285,0.47383 -0.10205,0.86152 0.424,0.86152 0.52605,0 0.71853,0.38496 0.42774,0.85548 -0.2908,0.47051 -0.16342,0.85548 0.28304,0.85548 0.7999,0 4.3915,6.91096 4.89048,9.41028 0.14091,0.70577 0.33124,1.4757 0.42295,1.71096 0.0917,0.23526 0.12117,0.71646 0.0655,1.06935 -0.0557,0.35288 0.32484,0.64161 0.8457,0.64161 0.52085,0 0.72542,0.57745 0.45458,1.28322 -0.27083,0.70577 -0.0784,1.28322 0.42774,1.28322 0.5061,0 0.70331,0.56512 0.43826,1.25582 -0.26505,0.6907 -0.0875,1.49958 0.39454,1.79749 0.48203,0.29792 0.67452,1.06785 0.42774,1.71096 -0.24679,0.64311 -0.047,1.41755 0.44394,1.72098 0.49096,0.30343 0.70277,1.27779 0.47069,2.16524 -0.23207,0.88746 -0.0767,1.82694 0.34526,2.08773 0.83321,0.51495 1.00027,2.94179 0.96863,14.0707 -0.0315,11.07007 -0.21244,13.60334 -1.00688,14.09434 -0.40093,0.24779 -0.53908,1.17663 -0.30701,2.06408 0.23208,0.88746 0.0203,1.86182 -0.47069,2.16525 -0.49095,0.30342 -0.69073,1.07786 -0.44394,1.72097 0.24678,0.64311 0.0543,1.41305 -0.42774,1.71096 -0.48205,0.29792 -0.65959,1.10679 -0.39454,1.7975 0.26505,0.6907 0.0678,1.25582 -0.43826,1.25582 -0.50608,0 -0.69857,0.57745 -0.42774,1.28322 0.27084,0.70577 0.0435,1.28322 -0.50507,1.28322 -0.54862,0 -0.77602,0.35837 -0.50532,0.79636 0.27071,0.43801 0.0947,1.04205 -0.3912,1.34234 -0.48586,0.30028 -0.66191,0.90432 -0.3912,1.34233 0.2707,0.438 0.0845,0.79637 -0.41379,0.79637 -0.49828,0 -0.80973,0.29656 -0.6921,0.65902 0.3428,1.05631 -2.96287,7.89578 -3.8162,7.89578 -0.42683,0 -0.53812,0.38496 -0.24733,0.85548 0.29079,0.47051 0.0983,0.85548 -0.42774,0.85548 -0.52605,0 -0.71685,0.38768 -0.424,0.86152 0.29284,0.47384 -0.0672,1.09162 -0.80008,1.37286 -0.7329,0.28123 -1.11786,0.85868 -0.85548,1.28322 0.26238,0.42453 -0.12481,1.00283 -0.8604,1.2851 -0.73559,0.28228 -1.33744,1.04062 -1.33744,1.68521 0,0.64457 -0.97443,1.81043 -2.1654,2.59079 -1.19096,0.78035 -1.95413,1.63008 -1.69591,1.8883 0.65309,0.6531 -4.81272,6.16989 -5.61911,5.67151 -0.35998,-0.22249 -1.48332,0.75944 -2.4963,2.18205 -1.01298,1.4226 -2.20004,2.36514 -2.6379,2.09454 -0.43786,-0.27062 -1.02705,0.10982 -1.30933,0.84542 -0.28226,0.73559 -1.04947,1.33744 -1.70491,1.33744 -0.65542,0 -1.19169,0.40768 -1.19169,0.90597 0,0.49828 -0.38497,0.66804 -0.85548,0.37725 -0.47052,-0.2908 -0.85548,-0.1795 -0.85548,0.24732 0,0.82172 -5.88538,3.74373 -7.17594,3.56275 -0.4179,-0.0586 -1.04131,0.34889 -1.38534,0.90554 -0.34402,0.55665 -1.63793,1.07073 -2.87534,1.14241 -1.23742,0.0717 -2.25013,0.46024 -2.25045,0.86347 -3.4e-4,0.40323 -0.56573,0.51629 -1.25643,0.25123 -0.69071,-0.26504 -1.50409,-0.0802 -1.80751,0.41074 -0.30343,0.49096 -1.27779,0.70277 -2.16524,0.4707 -0.88746,-0.23208 -1.83174,-0.069 -2.09839,0.36252 -0.26667,0.43145 -1.51818,0.78973 -2.78117,0.79617 -1.26298,0.007 -8.55938,0.12323 -16.21421,0.25952 -7.65484,0.13631 -14.0616,0.10411 -14.23725,-0.0715 z m 26.81747,-15.15555 c 0.50045,-0.3093 1.29489,-0.32444 1.7654,-0.0336 0.47051,0.2908 0.85548,0.0983 0.85548,-0.42774 0,-0.52605 0.38497,-0.71853 0.85548,-0.42774 0.47051,0.2908 0.85548,0.0983 0.85548,-0.42774 0,-0.52605 0.38497,-0.71853 0.85548,-0.42774 0.47051,0.2908 0.85548,0.12104 0.85548,-0.37725 0,-0.49828 0.28872,-0.82347 0.64161,-0.72265 0.80606,0.2303 7.05771,-6.07006 7.05771,-7.11271 0,-0.42346 0.44913,-0.76993 0.99806,-0.76993 0.54893,0 0.75975,-0.23831 0.46848,-0.52958 -0.29127,-0.29127 0.0331,-1.09224 0.72076,-1.77993 0.68769,-0.68769 1.03161,-1.60427 0.76425,-2.03686 -0.26735,-0.4326 -0.0557,-0.78653 0.47037,-0.78653 0.52605,0 0.73498,-0.35837 0.46428,-0.79637 -0.27071,-0.43801 -0.0947,-1.04205 0.3912,-1.34233 0.48586,-0.30029 0.67834,-0.87773 0.42774,-1.28322 -0.25061,-0.40549 -0.0812,-0.96867 0.37642,-1.25151 0.45765,-0.28283 0.63016,-1.04043 0.38337,-1.68353 -0.24678,-0.64312 -0.0312,-1.42732 0.47906,-1.74268 0.51027,-0.31536 0.69488,-0.95019 0.41026,-1.41073 -0.28463,-0.46053 -0.25997,-1.49258 0.0548,-2.29345 1.98915,-5.06101 1.95245,-27.85311 -0.0747,-46.36882 -0.55705,-5.0881 -1.77443,-12.96292 -2.116,-13.68768 -0.11088,-0.23526 -0.27542,-0.81271 -0.36564,-1.28322 -0.0902,-0.47052 -0.63829,-2.01038 -1.21792,-3.42192 -0.57964,-1.41154 -1.10655,-3.24013 -1.17093,-4.06353 -0.0643,-0.8234 -0.35847,-1.49709 -0.65354,-1.49709 -0.29508,0 -1.0447,-1.53987 -1.66584,-3.42192 -0.62114,-1.88206 -1.47541,-3.421922 -1.89838,-3.421922 -0.42297,0 -0.53112,-0.384966 -0.24032,-0.85548 0.29079,-0.470514 0.10894,-0.85548 -0.40411,-0.85548 -0.51304,0 -1.16964,-0.67369 -1.45911,-1.49709 -0.76278,-2.169785 -4.6787,-6.20223 -6.02301,-6.20223 -0.63251,0 -1.37075,-0.575237 -1.64054,-1.278306 -0.2698,-0.703068 -0.83517,-1.065315 -1.25637,-0.804992 -0.42122,0.260323 -0.76585,0.04291 -0.76585,-0.483142 0,-0.52605 -0.38497,-0.718533 -0.85548,-0.427739 -0.47051,0.290793 -0.85548,0.09831 -0.85548,-0.42774 0,-0.526051 -0.38497,-0.718534 -0.85548,-0.42774 -0.47051,0.290793 -0.85548,0.133111 -0.85548,-0.350403 0,-0.483516 -0.57745,-0.657532 -1.28322,-0.386701 -0.70577,0.270829 -1.28322,0.148757 -1.28322,-0.271272 0,-0.845838 -0.84468,-0.974393 -7.69932,-1.171794 -2.58783,-0.07453 -5.66756,0.244084 -6.84384,0.70802 -1.17629,0.463936 -2.42742,0.673518 -2.78031,0.465737 -0.35289,-0.20778 -0.64161,0.05262 -0.64161,0.578673 0,0.52605 -0.34463,0.743464 -0.76584,0.483141 -0.42121,-0.260323 -0.98795,0.105494 -1.25941,0.812927 -0.27147,0.707432 -0.79302,1.197005 -1.159,1.087939 -0.76947,-0.229316 -6.59905,5.410418 -6.63183,6.415866 -0.0121,0.370046 -0.53603,0.990536 -1.16436,1.378865 -0.62833,0.388329 -1.07394,0.855495 -0.99024,1.038147 0.18583,0.405542 -1.93509,5.296996 -2.55507,5.892716 -0.24483,0.23526 -0.57666,1.19767 -0.73738,2.1387 -0.16073,0.94103 -0.62032,1.83207 -1.0213,1.9801 -0.40098,0.14803 -0.51701,0.82172 -0.25784,1.49709 0.25916,0.67537 0.0223,1.22795 -0.52629,1.22795 -0.54862,0 -0.79673,0.32485 -0.55134,0.72189 0.40711,0.65873 -0.59261,5.54482 -1.7777,8.68839 -0.87522,2.32162 -1.09697,6.25002 -1.11067,19.67604 -0.0147,14.39609 0.20306,17.96592 1.19362,19.56868 0.35514,0.57463 0.43592,1.59145 0.17952,2.25963 -0.2564,0.66817 -0.0718,1.45861 0.41025,1.75653 0.48204,0.29791 0.67453,1.06784 0.42774,1.71096 -0.24678,0.6431 -0.0543,1.41304 0.42774,1.71096 0.48204,0.29791 0.67453,1.06784 0.42774,1.71096 -0.24678,0.6431 -0.13335,1.36418 0.25207,1.60238 0.73653,0.4552 3.16532,8.36377 2.74442,8.93633 -0.13427,0.18265 0.0775,0.56762 0.47055,0.85548 0.93803,0.68695 4.92298,8.89154 4.72089,9.7198 -0.0861,0.35288 0.22842,0.64161 0.69893,0.64161 0.47051,0 0.85548,0.48484 0.85548,1.07743 0,0.59259 0.78487,1.5676 1.74416,2.16668 0.95928,0.59909 1.54859,1.40566 1.30958,1.7924 -0.23901,0.38673 0.51598,1.59613 1.67777,2.68757 1.16178,1.09144 2.12514,1.62861 2.14079,1.19371 0.0157,-0.43491 0.76473,0.0923 1.66461,1.17163 0.89988,1.0793 1.83844,1.97474 2.08569,1.98987 1.35028,0.0826 5.63152,2.07791 5.63152,2.62457 0,0.35259 0.53851,0.43444 1.19669,0.18186 0.65818,-0.25256 1.39109,-0.14424 1.62869,0.24073 0.50305,0.81504 12.02825,0.71 13.3743,-0.12191 z"
     id="path9776"
     transform="matrix(0.75000002,0,0,0.75000002,-3.1546294e-4,0)" />
</svg>
